<?xml version="1.0" encoding="UTF-8"?>
<svg width="512px" height="512px" viewBox="0 0 512 512" version="1.1" xmlns="http://www.w3.org/2000/svg" xmlns:xlink="http://www.w3.org/1999/xlink">
    <title>logo-cutout</title>
    <g id="logo-cutout" stroke="none" stroke-width="1" fill="none" fill-rule="evenodd">
        <rect id="Rectangle" fill="#000000" fill-rule="nonzero" x="0" y="0" width="512" height="512"></rect>
        <path d="M190.827586,67 C202.705517,67 212.356972,76.5306488 212.548814,88.3603463 L212.551724,88.7195183 L212.551724,119.747402 L175.310345,119.747402 L150.481983,138.364132 L367.724138,138.364132 C405.054778,138.364132 435.387923,168.317599 435.990853,205.496649 L436,206.625475 C436,243.948177 406.040161,274.274871 368.853204,274.877673 L367.724138,274.886818 L144.275862,274.886818 C127.135991,274.886818 113.241379,288.778474 113.241379,305.914701 C113.241379,322.879566 126.859488,336.664427 143.76265,336.938428 L144.275862,336.942585 L408.989891,336.942585 C420.987801,336.942585 430.714029,346.666744 430.714029,358.662103 C430.714029,364.882939 428.046425,370.799039 423.398136,374.917209 L423.127772,375.15279 L347.724088,439.770776 C338.614596,447.577252 324.900148,446.522518 317.092012,437.414963 C313.803675,433.579386 311.9582,428.721185 311.865722,423.678558 L311.862069,423.280088 L311.862069,392.792774 L345.318017,392.792774 L367.042155,374.176044 L144.275862,374.176044 C106.945222,374.176044 76.6120769,344.222577 76.009147,307.043527 L76,305.914701 C76,268.591999 105.959839,238.265305 143.146796,237.662503 L144.275862,237.653358 L367.724138,237.653358 C384.864009,237.653358 398.758621,223.761702 398.758621,206.625475 C398.758621,189.66061 385.140512,175.875749 368.23735,175.601748 L367.724138,175.597591 L103.931034,175.597591 C97.0932034,175.597591 90.6544228,172.378886 86.5517241,166.909784 C79.4249655,157.40946 81.2602331,143.971548 90.6108993,136.72029 L90.8965517,136.502459 L177.793103,71.3439037 C181.553469,68.5242296 186.12713,67 190.827586,67 Z" id="Path" fill="#FFFFFF" fill-rule="nonzero" transform="translate(256.000000, 256.000000) scale(-1, 1) translate(-256.000000, -256.000000) "></path>
    </g>
</svg>