<?xml version="1.0" encoding="UTF-8"?>
<svg width="512px" height="512px" viewBox="0 0 512 512" version="1.1" xmlns="http://www.w3.org/2000/svg" xmlns:xlink="http://www.w3.org/1999/xlink">
    <title>logo-gradient</title>
    <defs>
        <path d="M324,-2.84217094e-14 C304.316572,-2.84217094e-14 288.322731,15.7970058 288.004823,35.4046742 L288,36 L288,76 L330.668,76 L352.001,92 L96,92 C43.5108574,92 0.860617148,134.125349 0.0128612572,186.412464 L0,188 C0,240.489143 42.1253488,283.139383 94.4124645,283.987139 L96,284 L384,284 C401.673112,284 416,298.326888 416,316 C416,333.496381 401.958217,347.713128 384.529179,347.995713 L384,348 L42.8130296,348 C22.9307786,348 6.81302964,364.117749 6.81302964,384 C6.81302964,394.334141 11.2534882,404.160913 18.9884057,410.988661 L19.3845402,411.333238 L116.571511,494.636355 C131.667241,507.575553 154.39404,505.827337 167.333238,490.731607 C172.80689,484.345679 175.868046,476.249538 175.99583,467.851246 L176,467.303117 L176,428 L137.173,428 L118.506,412 L384,412 C436.489143,412 479.139383,369.874651 479.987139,317.587536 L480,316 C480,263.510857 437.874651,220.860617 385.587536,220.012861 L384,220 L96,220 C78.326888,220 64,205.673112 64,188 C64,170.503619 78.0417829,156.286872 95.4708215,156.004287 L96,156 L436,156 C447.331263,156 458.001242,150.66501 464.8,141.6 C476.610057,125.853257 473.568757,103.579982 458.073367,91.5610539 L457.6,91.2 L345.6,7.2 C339.368538,2.52640339 331.789328,-2.84217094e-14 324,-2.84217094e-14 Z" id="path-1"></path>
        <linearGradient x1="100%" y1="50%" x2="0%" y2="50%" id="linearGradient-3">
            <stop stop-color="#6927FF" offset="0%"></stop>
            <stop stop-color="#837DFF" offset="100%"></stop>
        </linearGradient>
        <linearGradient x1="100%" y1="50%" x2="0%" y2="50%" id="linearGradient-4">
            <stop stop-color="#BF81FF" offset="0%"></stop>
            <stop stop-color="#FFD581" offset="100%"></stop>
        </linearGradient>
        <linearGradient x1="0%" y1="50%" x2="100%" y2="50%" id="linearGradient-5">
            <stop stop-color="#837DFF" offset="0%"></stop>
            <stop stop-color="#BF81FF" offset="100%"></stop>
        </linearGradient>
    </defs>
    <g id="logo-gradient" stroke="none" stroke-width="1" fill="none" fill-rule="evenodd">
        <g id="Rectangle-+-Rectangle-Copy-+-Rectangle-Copy-2-Mask" transform="translate(16.000000, 4.000000)">
            <mask id="mask-2" fill="white">
                <use xlink:href="#path-1"></use>
            </mask>
            <use id="Mask" fill="#000000" fill-rule="nonzero" xlink:href="#path-1"></use>
            <rect id="Rectangle" fill="#6927FF" mask="url(#mask-2)" x="288" y="-4" width="192" height="176"></rect>
            <rect id="Rectangle-Copy-6" fill="#FFD581" mask="url(#mask-2)" x="0" y="332" width="192" height="176"></rect>
            <rect id="Rectangle-Copy-2" fill="#837DFF" mask="url(#mask-2)" x="-16" y="76" width="128" height="224"></rect>
            <rect id="Rectangle-Copy-4" fill="#BF81FF" mask="url(#mask-2)" x="368" y="204" width="128" height="224"></rect>
            <rect id="Rectangle-Copy" fill="url(#linearGradient-3)" mask="url(#mask-2)" x="96" y="76" width="208" height="96"></rect>
            <rect id="Rectangle-Copy-5" fill="url(#linearGradient-4)" mask="url(#mask-2)" x="176" y="332" width="208" height="96"></rect>
            <rect id="Rectangle-Copy-3" stroke="#979797" fill="url(#linearGradient-5)" mask="url(#mask-2)" x="96" y="204" width="288" height="96"></rect>
        </g>
    </g>
</svg>