<?xml version="1.0" encoding="UTF-8"?>
<svg width="512px" height="512px" viewBox="0 0 512 512" version="1.1" xmlns="http://www.w3.org/2000/svg" xmlns:xlink="http://www.w3.org/1999/xlink">
    <title>logo-lines</title>
    <g id="logo-lines" stroke="none" stroke-width="1" fill="none" fill-rule="evenodd">
        <g id="Group" transform="translate(68.000000, 42.000000)" stroke="#9E9E9E" stroke-width="2">
            <path d="M370,96 L369.786809,124.410785 C369.685912,130.452565 367.745684,136.514345 363.847786,141.710437 C358.234158,149.193682 349.424467,153.597591 340.068966,153.597591 L76.2758621,153.597591 L75.8274454,153.601486 C68.6832935,153.717443 62.3240036,157.11764 58.1881442,162.359552 M376,247 L376,275.914701 L375.99059,277.10835 L375.960381,278.355457 C374.635885,319.426766 340.963549,352.176044 299.724138,352.176044 C228.684995,352.176044 175.405637,352.176044 139.886065,352.176044 M140.137931,354.792774 L140.137931,393.280088 L140.133942,393.751901 C140.006309,400.729776 137.478429,407.376624 132.981494,412.621932 C122.298017,425.083338 103.534077,426.526411 91.0702189,415.845375 L15.666535,351.22739 L15.3463023,350.948715 C8.93207005,345.266364 5.28597127,337.169161 5.28597127,328.662103 L5.5,299.5 M318.467488,262.526163 C314.288958,256.690152 307.450957,252.886818 299.724138,252.886818 L76.2758621,252.886818 L75.0820006,252.87741 C33.4213599,252.202353 0,218.274284 0,176.625475 L0.00940964418,175.431826 L0.0396189508,174.184719 L0,147.5" id="Shape" fill-rule="nonzero"></path>
            <path d="M253.172414,-2.84217094e-14 C259.603517,-2.84217094e-14 265.861198,2.08545008 271.006243,5.94341371 L357.902795,71.1019686 L358.240138,71.3588875 C371.103824,81.3340918 373.588648,99.7253832 363.847786,112.710437 C358.234158,120.193682 349.424467,124.597591 340.068966,124.597591 L76.2758621,124.597591 L75.8274454,124.601486 C63.3343559,124.804262 53.2413793,135.050261 53.2413793,147.625475 C53.2413793,160.343043 63.5538877,170.653358 76.2758621,170.653358 L299.724138,170.653358 L300.917999,170.662766 C342.57864,171.337823 376,205.265892 376,246.914701 L375.99059,248.10835 L375.960381,249.355457 C374.635885,290.426766 340.963549,323.176044 299.724138,323.176044 L98.588,323.176 L101.641,325.792 L140.137931,325.792774 L140.137931,364.280088 L140.133942,364.751901 C140.006309,371.729776 137.478429,378.376624 132.981494,383.621932 C122.298017,396.083338 103.534077,397.526411 91.0702189,386.845375 L15.666535,322.22739 L15.3463023,321.948715 C8.93207005,316.266364 5.28597127,308.169161 5.28597127,299.662103 C5.28597127,283.248085 18.5943019,269.942585 35.0101092,269.942585 L299.724138,269.942585 L300.172555,269.93869 C312.665644,269.735914 322.758621,259.489915 322.758621,246.914701 C322.758621,234.197133 312.446112,223.886818 299.724138,223.886818 L76.2758621,223.886818 L75.0820006,223.87741 C33.4213599,223.202353 0,189.274284 0,147.625475 L0.00940964418,146.431826 L0.0396189508,145.184719 C1.36411473,104.11341 35.0364509,71.3641315 76.2758621,71.3641315 L269.515,71.364 L266.025,68.747 L223.448276,68.7474016 L223.448276,29.7195183 L223.451449,29.2955235 C223.715105,13.0212133 236.93936,-2.84217094e-14 253.172414,-2.84217094e-14 Z" id="Path" fill-rule="nonzero"></path>
            <path d="M112.5,394 L112.5,423 M134.5,382 L134.5,411 M166.5,322 L166.5,351 M198.5,322 L198.5,351 M230.5,322 L230.5,351 M262.5,322 L262.5,351 M294.5,322 L294.5,351 M322.5,319 L322.5,348 M344.5,308 L344.5,337 M360.5,294 L360.5,323 M319.5,235 L319.5,259.5 M307.5,225 L307.5,254 M277.5,224 L277.5,253 M245.5,224 L245.5,253 M213.5,224 L213.5,253 M181.5,224 L181.5,253 M149.5,224 L149.5,253 M117.5,224 L117.5,253 M85.5,224 L85.5,253 M57.5,222 L57.5,251 M57.5,133 L57.5,162 M69.5,126 L69.5,155 M99.5,125 L99.5,154 M131.5,125 L131.5,154 M163.5,125 L163.5,154 M195.5,125 L195.5,154 M227.5,125 L227.5,154 M259.5,125 L259.5,154 M291.5,125 L291.5,154 M323.5,125 L323.5,154 M351.5,123 L351.5,152 M365.5,110 L365.5,139 M35.5,212 L35.5,241 M19.5,198 L19.5,227 M7.5,180 L7.5,209 M370.5,275 L370.5,304 M84.5,380 L84.5,409 M62.5,362 L62.5,391 M40.5,345 L40.5,374 M18.5,322 L18.5,351" id="Combined-Shape"></path>
        </g>
    </g>
</svg>