<?xml version="1.0" encoding="UTF-8"?>
<svg width="512px" height="512px" viewBox="0 0 512 512" version="1.1" xmlns="http://www.w3.org/2000/svg" xmlns:xlink="http://www.w3.org/1999/xlink">
    <title>logo</title>
    <g id="logo" stroke="none" stroke-width="1" fill="none" fill-rule="evenodd">
        <rect id="Rectangle" fill-opacity="0.12" fill="#D8D8D8" x="0" y="170" width="512" height="172"></rect>
        <rect id="Rectangle-Copy" fill-opacity="0.12" fill="#D8D8D8" transform="translate(256.000000, 256.000000) rotate(90.000000) translate(-256.000000, -256.000000) " x="0" y="170" width="512" height="172"></rect>
        <path d="M176,80 L176,40 C176,37.790861 174.209139,36 172,36 C171.134519,36 170.292385,36.2807115 169.6,36.8 L57.6,120.8 C55.8326888,122.125483 55.4745166,124.632689 56.8,126.4 C57.5554175,127.407223 58.7409708,128 60,128 L400,128 C435.346224,128 464,156.653776 464,192 C464,227.346224 435.346224,256 400,256 L112,256 C76.653776,256 48,284.653776 48,320 C48,355.346224 76.653776,384 112,384 L453.18697,384 C455.396109,384 457.18697,385.790861 457.18697,388 C457.18697,389.1677 456.676719,390.277098 455.790136,391.037026 L358.603165,474.340144 C356.925862,475.777832 354.400662,475.583586 352.962974,473.906283 C352.341569,473.181311 352,472.257963 352,471.303117 L352,432 L352,432" id="Path" stroke="#000000" stroke-width="32" transform="translate(256.000000, 256.000000) scale(-1, 1) translate(-256.000000, -256.000000) "></path>
    </g>
</svg>