<?xml version="1.0" encoding="UTF-8"?>
<svg width="158px" height="32px" viewBox="0 0 158 32" version="1.1" xmlns="http://www.w3.org/2000/svg" xmlns:xlink="http://www.w3.org/1999/xlink">
    <title>wiki-playground-btn</title>
    <g id="wiki-playground-btn" stroke="none" stroke-width="1" fill="none" fill-rule="evenodd">
        <rect id="Rectangle" stroke-opacity="0.1" stroke="#F0F6FC" fill="#1D69E0" x="0.5" y="0.5" width="157" height="31" rx="6"></rect>
        <path d="M19.7822266,22.1894531 C19.9326172,22.1894531 20.0784505,22.164388 20.2197266,22.1142578 C20.3610026,22.0641276 20.5159505,21.9889323 20.6845703,21.8886719 L28.8056641,17.1855469 C29.1110026,17.0078125 29.3343099,16.8369141 29.4755859,16.6728516 C29.616862,16.5087891 29.6875,16.3082682 29.6875,16.0712891 C29.6875,15.8388672 29.616862,15.6394857 29.4755859,15.4731445 C29.3343099,15.3068034 29.1110026,15.1370443 28.8056641,14.9638672 L20.6845703,10.2539062 C20.5159505,10.1582031 20.3610026,10.0852865 20.2197266,10.0351562 C20.0784505,9.98502604 19.9326172,9.95996094 19.7822266,9.95996094 C19.4860026,9.95996094 19.2387695,10.065918 19.0405273,10.277832 C18.8422852,10.4897461 18.7431641,10.7779948 18.7431641,11.1425781 L18.7431641,21 C18.7431641,21.3691406 18.8422852,21.659668 19.0405273,21.871582 C19.2387695,22.0834961 19.4860026,22.1894531 19.7822266,22.1894531 Z M20.3837891,20.2548828 C20.3427734,20.2548828 20.3222656,20.2298177 20.3222656,20.1796875 L20.3222656,11.9628906 C20.3222656,11.9127604 20.3427734,11.8876953 20.3837891,11.8876953 C20.4020182,11.8876953 20.429362,11.8968099 20.4658203,11.9150391 L27.5341797,16.0029297 C27.5478516,16.0120443 27.5603841,16.0211589 27.5717773,16.0302734 C27.5831706,16.039388 27.5888672,16.0530599 27.5888672,16.0712891 C27.5888672,16.0895182 27.5831706,16.1031901 27.5717773,16.1123047 C27.5603841,16.1214193 27.5478516,16.1305339 27.5341797,16.1396484 L20.4658203,20.2275391 C20.429362,20.2457682 20.4020182,20.2548828 20.3837891,20.2548828 Z M38.7519531,21 L38.7519531,12.6191406 L41.7871094,12.6191406 L41.7871094,11.1357422 L33.953125,11.1357422 L33.953125,12.6191406 L36.9882812,12.6191406 L36.9882812,21 L38.7519531,21 Z M45.0136719,21 L45.0136719,16.6591797 C45.0136719,16.3037109 45.0911458,15.9949544 45.2460938,15.7329102 C45.4010417,15.4708659 45.6197917,15.2692057 45.9023438,15.1279297 C46.1848958,14.9866536 46.5152995,14.9160156 46.8935547,14.9160156 C47.0439453,14.9160156 47.1886393,14.9239909 47.3276367,14.9399414 C47.4666341,14.9558919 47.6044922,14.9798177 47.7412109,15.0117188 L47.7412109,13.4873047 C47.6591797,13.4645182 47.5555013,13.4451497 47.4301758,13.4291992 C47.3048503,13.4132487 47.1783854,13.4052734 47.0507812,13.4052734 C46.5585938,13.4052734 46.1472982,13.5169271 45.8168945,13.7402344 C45.4864909,13.9635417 45.257487,14.2757161 45.1298828,14.6767578 L45.0136719,14.6767578 L45.0136719,13.5283203 L43.3115234,13.5283203 L43.3115234,21 L45.0136719,21 Z M49.7714844,23.625 C50.3229167,23.625 50.793457,23.5498047 51.1831055,23.3994141 C51.5727539,23.2490234 51.9054362,22.9938151 52.1811523,22.6337891 C52.4568685,22.273763 52.7041016,21.7838542 52.9228516,21.1640625 L55.6025391,13.5283203 L53.8115234,13.5283203 L52.074,19.367 L51.938,19.367 L50.2021484,13.5283203 L48.3427734,13.5283203 L51.015625,21.0068359 L50.9267578,21.3486328 C50.835612,21.6858724 50.684082,21.9308268 50.472168,22.0834961 C50.2602539,22.2361654 49.9788411,22.3125 49.6279297,22.3125 C49.5413411,22.3125 49.452474,22.3113607 49.3613281,22.309082 C49.2701823,22.3068034 49.1904297,22.3011068 49.1220703,22.2919922 L49.1220703,23.5976562 C49.226888,23.6067708 49.3351237,23.6136068 49.4467773,23.6181641 C49.558431,23.6227214 49.6666667,23.625 49.7714844,23.625 Z M61.3583984,12.2773438 C61.6363932,12.2773438 61.8745117,12.179362 62.0727539,11.9833984 C62.2709961,11.7874349 62.3701172,11.5527344 62.3701172,11.2792969 C62.3701172,10.9967448 62.2709961,10.7586263 62.0727539,10.5649414 C61.8745117,10.3712565 61.6363932,10.2744141 61.3583984,10.2744141 C61.0804036,10.2744141 60.8411458,10.3712565 60.640625,10.5649414 C60.4401042,10.7586263 60.3398438,10.9967448 60.3398438,11.2792969 C60.3398438,11.5527344 60.4401042,11.7874349 60.640625,11.9833984 C60.8411458,12.179362 61.0804036,12.2773438 61.3583984,12.2773438 Z M62.1992188,21 L62.1992188,13.5283203 L60.5039062,13.5283203 L60.5039062,21 L62.1992188,21 Z M65.8496094,21 L65.8496094,16.6455078 C65.8496094,16.2718099 65.9156901,15.9482422 66.0478516,15.6748047 C66.180013,15.4013672 66.3691406,15.1894531 66.6152344,15.0390625 C66.8613281,14.8886719 67.1529948,14.8134766 67.4902344,14.8134766 C68.0052083,14.8134766 68.3846029,14.9593099 68.628418,15.2509766 C68.8722331,15.5426432 68.9941406,15.9801432 68.9941406,16.5634766 L68.9941406,21 L70.6962891,21 L70.6962891,16.1669922 C70.6962891,15.2783203 70.4752604,14.5924479 70.0332031,14.109375 C69.5911458,13.6263021 68.953125,13.3847656 68.1191406,13.3847656 C67.5813802,13.3847656 67.132487,13.4986979 66.7724609,13.7265625 C66.4124349,13.9544271 66.1435547,14.2711589 65.9658203,14.6767578 L65.8496094,14.6767578 L65.8496094,13.5283203 L64.1474609,13.5283203 L64.1474609,21 L65.8496094,21 Z M79.7402344,21.2460938 C80.5286458,21.2460938 81.2111003,21.1184896 81.7875977,20.8632812 C82.3640951,20.6080729 82.808431,20.2480469 83.1206055,19.7832031 C83.4327799,19.3183594 83.5888672,18.7669271 83.5888672,18.1289062 L83.5888672,18.1220703 C83.5888672,17.3746745 83.3575846,16.7810872 82.8950195,16.3413086 C82.4324544,15.9015299 81.6816406,15.5722656 80.6425781,15.3535156 L79.5830078,15.1279297 C78.9677734,15.0003255 78.5245768,14.8225911 78.253418,14.5947266 C77.9822591,14.366862 77.8466797,14.0797526 77.8466797,13.7333984 L77.8466797,13.7265625 C77.8466797,13.4440104 77.9275716,13.202474 78.0893555,13.0019531 C78.2511393,12.8014323 78.4733073,12.6453451 78.7558594,12.5336914 C79.0384115,12.4220378 79.3597005,12.3662109 79.7197266,12.3662109 C80.0979818,12.3662109 80.4283854,12.4231771 80.7109375,12.5371094 C80.9934896,12.6510417 81.2202148,12.8048503 81.3911133,12.9985352 C81.5620117,13.1922201 81.6679688,13.4189453 81.7089844,13.6787109 L81.7226562,13.7607422 L83.4042969,13.7607422 L83.3974609,13.671875 C83.3610026,13.1432292 83.1901042,12.6692708 82.8847656,12.25 C82.5794271,11.8307292 82.1601562,11.4991862 81.6269531,11.2553711 C81.09375,11.011556 80.4625651,10.8896484 79.7333984,10.8896484 C79.0224609,10.8896484 78.3924154,11.0138346 77.8432617,11.262207 C77.2941081,11.5105794 76.863444,11.8557943 76.5512695,12.2978516 C76.2390951,12.7399089 76.0830078,13.2548828 76.0830078,13.8427734 L76.0830078,13.8496094 C76.0830078,14.5833333 76.3120117,15.1860352 76.7700195,15.6577148 C77.2280273,16.1293945 77.9628906,16.4723307 78.9746094,16.6865234 L80.0341797,16.9052734 C80.6722005,17.0419922 81.1302083,17.2231445 81.4082031,17.4487305 C81.6861979,17.6743164 81.8251953,17.9648438 81.8251953,18.3203125 L81.8251953,18.3271484 C81.8251953,18.6097005 81.7386068,18.8592122 81.5654297,19.0756836 C81.3922526,19.2921549 81.1529948,19.4619141 80.8476562,19.5849609 C80.5423177,19.7080078 80.1914062,19.7695312 79.7949219,19.7695312 C79.3802083,19.7695312 79.0110677,19.7114258 78.6875,19.5952148 C78.3639323,19.4790039 78.105306,19.3183594 77.9116211,19.1132812 C77.7179362,18.9082031 77.6074219,18.6666667 77.5800781,18.3886719 L77.5732422,18.3203125 L75.8642578,18.3203125 L75.8710938,18.4160156 C75.9121094,18.9811198 76.094401,19.4755859 76.4179688,19.8994141 C76.7415365,20.3232422 77.1847331,20.6536458 77.7475586,20.890625 C78.3103841,21.1276042 78.9746094,21.2460938 79.7402344,21.2460938 Z M87.2802734,21.1230469 C87.6129557,21.1230469 87.9182943,21.077474 88.1962891,20.9863281 C88.4742839,20.8951823 88.7215169,20.7630208 88.9379883,20.5898438 C89.1544596,20.4166667 89.3310547,20.2115885 89.4677734,19.9746094 L89.5839844,19.9746094 L89.5839844,21 L91.265625,21 L91.265625,15.8935547 C91.265625,15.3694661 91.1494141,14.9194336 90.9169922,14.543457 C90.6845703,14.1674805 90.3450521,13.8803711 89.8984375,13.6821289 C89.4518229,13.4838867 88.9049479,13.3847656 88.2578125,13.3847656 C87.6699219,13.3847656 87.1503906,13.4713542 86.6992188,13.6445312 C86.2480469,13.8177083 85.8857422,14.0615234 85.6123047,14.3759766 C85.3388672,14.6904297 85.1748047,15.0572917 85.1201172,15.4765625 L85.1132812,15.5380859 L86.7197266,15.5380859 L86.7265625,15.5107422 C86.813151,15.2646484 86.9794922,15.0743815 87.2255859,14.9399414 C87.4716797,14.8055013 87.7884115,14.7382812 88.1757812,14.7382812 C88.640625,14.7382812 88.9915365,14.8374023 89.2285156,15.0356445 C89.4654948,15.2338867 89.5839844,15.5198568 89.5839844,15.8935547 L89.583,16.534 L87.6630859,16.6523438 C86.7516276,16.702474 86.050944,16.9189453 85.5610352,17.3017578 C85.0711263,17.6845703 84.8261719,18.2086589 84.8261719,18.8740234 L84.8261719,18.8876953 C84.8261719,19.3434245 84.9321289,19.7387695 85.144043,20.0737305 C85.355957,20.4086914 85.6476237,20.6673177 86.019043,20.8496094 C86.3904622,21.031901 86.8108724,21.1230469 87.2802734,21.1230469 Z M87.7998047,19.8173828 C87.4215495,19.8173828 87.1105143,19.7285156 86.8666992,19.5507812 C86.6228841,19.3730469 86.5009766,19.1246745 86.5009766,18.8056641 L86.5009766,18.7919922 C86.5009766,18.4820964 86.6149089,18.2405599 86.8427734,18.0673828 C87.070638,17.8942057 87.4238281,17.7939453 87.9023438,17.7666016 L89.583,17.658 L89.5839844,18.2587891 C89.5839844,18.555013 89.5065104,18.8204753 89.3515625,19.0551758 C89.1966146,19.2898763 88.9847005,19.4755859 88.7158203,19.6123047 C88.4469401,19.7490234 88.1416016,19.8173828 87.7998047,19.8173828 Z M94.8544922,21 L94.8544922,16.6455078 C94.8544922,16.2718099 94.9205729,15.9482422 95.0527344,15.6748047 C95.1848958,15.4013672 95.3740234,15.1894531 95.6201172,15.0390625 C95.8662109,14.8886719 96.1578776,14.8134766 96.4951172,14.8134766 C97.0100911,14.8134766 97.3894857,14.9593099 97.6333008,15.2509766 C97.8771159,15.5426432 97.9990234,15.9801432 97.9990234,16.5634766 L97.9990234,21 L99.7011719,21 L99.7011719,16.1669922 C99.7011719,15.2783203 99.4801432,14.5924479 99.0380859,14.109375 C98.5960286,13.6263021 97.9580078,13.3847656 97.1240234,13.3847656 C96.586263,13.3847656 96.1373698,13.4986979 95.7773438,13.7265625 C95.4173177,13.9544271 95.1484375,14.2711589 94.9707031,14.6767578 L94.8544922,14.6767578 L94.8544922,13.5283203 L93.1523438,13.5283203 L93.1523438,21 L94.8544922,21 Z M104.253906,21.1230469 C104.782552,21.1230469 105.241699,21.0091146 105.631348,20.78125 C106.020996,20.5533854 106.318359,20.2366536 106.523438,19.8310547 L106.646484,19.8310547 L106.646484,21 L108.341797,21 L108.341797,10.6367188 L106.646484,10.6367188 L106.646484,14.7177734 L106.523438,14.7177734 C106.332031,14.3167318 106.034668,13.9977214 105.631348,13.7607422 C105.228027,13.523763 104.76888,13.4052734 104.253906,13.4052734 C103.625,13.4052734 103.081543,13.5613607 102.623535,13.8735352 C102.165527,14.1857096 101.812337,14.6300456 101.563965,15.206543 C101.315592,15.7830404 101.191406,16.4677734 101.191406,17.2607422 L101.191406,17.2744141 C101.191406,18.0582682 101.316732,18.7395833 101.567383,19.3183594 C101.818034,19.8971354 102.173503,20.3426107 102.633789,20.6547852 C103.094076,20.9669596 103.634115,21.1230469 104.253906,21.1230469 Z M104.787109,19.6875 C104.39974,19.6875 104.067057,19.5906576 103.789062,19.3969727 C103.511068,19.2032878 103.296875,18.9264323 103.146484,18.5664062 C102.996094,18.2063802 102.920898,17.7757161 102.920898,17.2744141 L102.920898,17.2607422 C102.920898,16.7594401 102.996094,16.3276367 103.146484,15.965332 C103.296875,15.6030273 103.512207,15.3250326 103.79248,15.1313477 C104.072754,14.9376628 104.404297,14.8408203 104.787109,14.8408203 C105.174479,14.8408203 105.508301,14.9388021 105.788574,15.1347656 C106.068848,15.3307292 106.285319,15.608724 106.437988,15.96875 C106.590658,16.328776 106.666992,16.7594401 106.666992,17.2607422 L106.666992,17.2744141 C106.666992,17.7711589 106.590658,18.2006836 106.437988,18.5629883 C106.285319,18.925293 106.068848,19.2032878 105.788574,19.3969727 C105.508301,19.5906576 105.174479,19.6875 104.787109,19.6875 Z M114.494141,21.1230469 C115.11849,21.1230469 115.659668,20.9669596 116.117676,20.6547852 C116.575684,20.3426107 116.931152,19.8971354 117.184082,19.3183594 C117.437012,18.7395833 117.563477,18.0582682 117.563477,17.2744141 L117.563477,17.2607422 C117.563477,16.4677734 117.438151,15.7830404 117.1875,15.206543 C116.936849,14.6300456 116.58252,14.1857096 116.124512,13.8735352 C115.666504,13.5613607 115.123047,13.4052734 114.494141,13.4052734 C113.979167,13.4052734 113.52002,13.523763 113.116699,13.7607422 C112.713379,13.9977214 112.416016,14.3167318 112.224609,14.7177734 L112.108398,14.7177734 L112.108398,10.6367188 L110.40625,10.6367188 L110.40625,21 L112.108398,21 L112.108398,19.8310547 L112.224609,19.8310547 C112.429688,20.2366536 112.72819,20.5533854 113.120117,20.78125 C113.512044,21.0091146 113.970052,21.1230469 114.494141,21.1230469 Z M113.960938,19.6875 C113.573568,19.6875 113.239746,19.5906576 112.959473,19.3969727 C112.679199,19.2032878 112.462728,18.925293 112.310059,18.5629883 C112.157389,18.2006836 112.081055,17.7711589 112.081055,17.2744141 L112.081055,17.2607422 C112.081055,16.7594401 112.157389,16.328776 112.310059,15.96875 C112.462728,15.608724 112.680339,15.3307292 112.962891,15.1347656 C113.245443,14.9388021 113.578125,14.8408203 113.960938,14.8408203 C114.348307,14.8408203 114.68099,14.9376628 114.958984,15.1313477 C115.236979,15.3250326 115.451172,15.6030273 115.601562,15.965332 C115.751953,16.3276367 115.827148,16.7594401 115.827148,17.2607422 L115.827148,17.2744141 C115.827148,17.7757161 115.751953,18.2063802 115.601562,18.5664062 C115.451172,18.9264323 115.236979,19.2032878 114.958984,19.3969727 C114.68099,19.5906576 114.348307,19.6875 113.960938,19.6875 Z M122.341797,21.1503906 C123.089193,21.1503906 123.730632,20.9943034 124.266113,20.6821289 C124.801595,20.3699544 125.21403,19.9244792 125.503418,19.3457031 C125.792806,18.7669271 125.9375,18.0742188 125.9375,17.2675781 L125.9375,17.2539062 C125.9375,16.4518229 125.791667,15.7613932 125.5,15.1826172 C125.208333,14.6038411 124.794759,14.1595052 124.259277,13.8496094 C123.723796,13.5397135 123.084635,13.3847656 122.341797,13.3847656 C121.598958,13.3847656 120.959798,13.5397135 120.424316,13.8496094 C119.888835,14.1595052 119.47526,14.6049805 119.183594,15.1860352 C118.891927,15.7670898 118.746094,16.4563802 118.746094,17.2539062 L118.746094,17.2675781 C118.746094,18.0742188 118.890788,18.7669271 119.180176,19.3457031 C119.469564,19.9244792 119.883138,20.3699544 120.420898,20.6821289 C120.958659,20.9943034 121.598958,21.1503906 122.341797,21.1503906 Z M122.341797,19.7695312 C121.945312,19.7695312 121.609212,19.6715495 121.333496,19.4755859 C121.05778,19.2796224 120.847005,18.9947917 120.701172,18.6210938 C120.555339,18.2473958 120.482422,17.7985026 120.482422,17.2744141 L120.482422,17.2607422 C120.482422,16.7320964 120.555339,16.2820638 120.701172,15.9106445 C120.847005,15.5392253 121.058919,15.2543945 121.336914,15.0561523 C121.614909,14.8579102 121.94987,14.7587891 122.341797,14.7587891 C122.733724,14.7587891 123.067546,14.8579102 123.343262,15.0561523 C123.618978,15.2543945 123.829753,15.5392253 123.975586,15.9106445 C124.121419,16.2820638 124.194336,16.7320964 124.194336,17.2607422 L124.194336,17.2744141 C124.194336,17.7985026 124.121419,18.2462565 123.975586,18.6176758 C123.829753,18.9890951 123.618978,19.2739258 123.343262,19.472168 C123.067546,19.6704102 122.733724,19.7695312 122.341797,19.7695312 Z M128.74707,21 L130.27832,18.4023438 L130.394531,18.4023438 L131.925781,21 L133.839844,21 L131.392578,17.2197266 L133.8125,13.5283203 L131.946289,13.5283203 L130.469727,16.1191406 L130.353516,16.1191406 L128.863281,13.5283203 L126.901367,13.5283203 L129.341797,17.2949219 L126.921875,21 L128.74707,21 Z" id="TryinSandbox" fill="#FFFFFF" fill-rule="nonzero"></path>
    </g>
</svg>