<?xml version="1.0" encoding="UTF-8"?>
<svg width="157px" height="32px" viewBox="0 0 157 32" version="1.1" xmlns="http://www.w3.org/2000/svg" xmlns:xlink="http://www.w3.org/1999/xlink">
    <title>wiki-playground-btn</title>
    <g id="wiki-playground-btn" stroke="none" stroke-width="1" fill="none" fill-rule="evenodd">
        <rect id="Rectangle" stroke-opacity="0.001" stroke="#F0F6FC" fill="#1585FD" x="0.5" y="0.5" width="157" height="31" rx="6"></rect>
        <path d="M19.7822266,22.1894531 C20.0830078,22.1894531 20.3496094,22.0869141 20.6914062,21.8886719 L28.8056641,17.1855469 C29.4140625,16.8369141 29.6875,16.5429688 29.6875,16.0712891 C29.6875,15.6064453 29.4140625,15.3125 28.8056641,14.9570312 L20.6914062,10.2539062 C20.3496094,10.0556641 20.0830078,9.953125 19.7822266,9.953125 C19.1875,9.953125 18.7431641,10.4111328 18.7431641,11.1425781 L18.7431641,21 C18.7431641,21.7382812 19.1875,22.1894531 19.7822266,22.1894531 Z M20.390625,20.2548828 C20.3496094,20.2548828 20.3291016,20.2275391 20.3291016,20.1796875 L20.3291016,11.9628906 C20.3291016,11.9150391 20.3496094,11.8876953 20.390625,11.8876953 C20.4111328,11.8876953 20.4384766,11.9013672 20.4658203,11.9150391 L27.5341797,16.0029297 C27.5615234,16.0166016 27.5888672,16.0371094 27.5888672,16.0712891 C27.5888672,16.1054688 27.5615234,16.1259766 27.5341797,16.1464844 L20.4658203,20.2275391 C20.4384766,20.2412109 20.4111328,20.2548828 20.390625,20.2548828 Z M39.3607344,21 L39.3607344,12.6191406 L42.4027266,12.6191406 L42.4027266,11.1357422 L34.5619063,11.1357422 L34.5619063,12.6191406 L37.5970625,12.6191406 L37.5970625,21 L39.3607344,21 Z M45.0518438,21 L45.0518438,16.6591797 C45.0518438,15.5927734 45.796961,14.9160156 46.9317266,14.9160156 C47.2256719,14.9160156 47.5059453,14.9570312 47.7793828,15.0117188 L47.7793828,13.4873047 C47.6153203,13.4394531 47.3487188,13.4052734 47.0889531,13.4052734 C46.1045781,13.4052734 45.4209844,13.8769531 45.1680547,14.6767578 L45.0518438,14.6767578 L45.0518438,13.5283203 L43.3496953,13.5283203 L43.3496953,21 L45.0518438,21 Z M50.1892422,23.625 C51.8435391,23.625 52.6980313,23.0302734 53.3406094,21.1572266 L56.0202969,13.5283203 L54.2292813,13.5283203 L52.4929531,19.3662109 L52.3630703,19.3662109 L50.6199063,13.5283203 L48.7605313,13.5283203 L51.4333828,21.0068359 L51.3445156,21.3486328 C51.1599453,22.0253906 50.7429531,22.3125 50.0456875,22.3125 C49.8679531,22.3125 49.6765469,22.3056641 49.5398281,22.2919922 L49.5398281,23.5976562 C49.7449063,23.6181641 49.9841641,23.625 50.1892422,23.625 Z M62.3849375,12.2773438 C62.9386485,12.2773438 63.3966563,11.8330078 63.3966563,11.2724609 C63.3966563,10.71875 62.9386485,10.2675781 62.3849375,10.2675781 C61.8243907,10.2675781 61.3663828,10.71875 61.3663828,11.2724609 C61.3663828,11.8330078 61.8243907,12.2773438 62.3849375,12.2773438 Z M63.2325938,21 L63.2325938,13.5283203 L61.5304453,13.5283203 L61.5304453,21 L63.2325938,21 Z M67.1805391,21 L67.1805391,16.6455078 C67.1805391,15.5244141 67.8094453,14.8134766 68.8211641,14.8134766 C69.8533907,14.8134766 70.3250703,15.4013672 70.3250703,16.5634766 L70.3250703,21 L72.0272188,21 L72.0272188,16.1669922 C72.0272188,14.3896484 71.1180391,13.3847656 69.4500703,13.3847656 C68.3699922,13.3847656 67.6522188,13.8701172 67.29675,14.6699219 L67.1805391,14.6699219 L67.1805391,13.5283203 L65.4783907,13.5283203 L65.4783907,21 L67.1805391,21 Z M81.6731094,21.2460938 C84.0383438,21.2460938 85.5217422,20.0429688 85.5217422,18.1220703 L85.5217422,18.1152344 C85.5217422,16.625 84.6535782,15.7910156 82.5754532,15.3535156 L81.5158829,15.1279297 C80.2854141,14.8681641 79.7863907,14.4306641 79.7863907,13.7333984 L79.7863907,13.7265625 C79.7863907,12.8857422 80.5656875,12.3730469 81.6594375,12.3730469 C82.7873672,12.3662109 83.5188125,12.9130859 83.6418594,13.6787109 L83.6555313,13.7607422 L85.3440079,13.7607422 L85.3371719,13.671875 C85.214125,12.0859375 83.8537735,10.8896484 81.6662735,10.8896484 C79.533461,10.8896484 78.0158829,12.0791016 78.0158829,13.8427734 L78.0158829,13.8496094 C78.0158829,15.3193359 78.8908829,16.2626953 80.9074844,16.6865234 L81.9670547,16.9052734 C83.2385391,17.1787109 83.7512344,17.609375 83.7512344,18.3203125 L83.7512344,18.3271484 C83.7512344,19.1748047 82.91725,19.7626953 81.7277969,19.7626953 C80.4768204,19.7626953 79.5949844,19.2158203 79.5129532,18.3886719 L79.5061172,18.3203125 L77.7971329,18.3203125 L77.8039688,18.4160156 C77.9270157,20.1181641 79.3830704,21.2460938 81.6731094,21.2460938 Z M89.4491797,21.1230469 C90.4335547,21.1230469 91.2265235,20.6992188 91.6366797,19.9746094 L91.7528907,19.9746094 L91.7528907,21 L93.4345313,21 L93.4345313,15.8935547 C93.4345313,14.3144531 92.3544532,13.3847656 90.4335547,13.3847656 C88.656211,13.3847656 87.453086,14.21875 87.2890235,15.4765625 L87.2821876,15.5380859 L88.8886329,15.5380859 L88.8954688,15.5107422 C89.0663672,15.0185547 89.5722266,14.7382812 90.3515235,14.7382812 C91.2675391,14.7382812 91.7528907,15.1484375 91.7528907,15.8935547 L91.7528907,16.5361328 L89.8319922,16.6523438 C88.0136329,16.7617188 86.9950782,17.5410156 86.9950782,18.8740234 L86.9950782,18.8876953 C86.9950782,20.2480469 88.0273047,21.1230469 89.4491797,21.1230469 Z M89.968711,19.8173828 C89.2167579,19.8173828 88.6767188,19.4414062 88.6767188,18.8056641 L88.6767188,18.7919922 C88.6767188,18.1767578 89.1210547,17.828125 90.0712501,17.7666016 L91.7528907,17.6572266 L91.7528907,18.2587891 C91.7528907,19.1474609 90.9941016,19.8173828 89.968711,19.8173828 Z M97.3277891,21 L97.3277891,16.6455078 C97.3277891,15.5244141 97.9566954,14.8134766 98.9684141,14.8134766 C100.000641,14.8134766 100.47232,15.4013672 100.47232,16.5634766 L100.47232,21 L102.174469,21 L102.174469,16.1669922 C102.174469,14.3896484 101.265289,13.3847656 99.5973204,13.3847656 C98.5172422,13.3847656 97.7994688,13.8701172 97.4440001,14.6699219 L97.3277891,14.6699219 L97.3277891,13.5283203 L95.6256407,13.5283203 L95.6256407,21 L97.3277891,21 Z M107.031594,21.1230469 C108.084328,21.1230469 108.890969,20.6445312 109.301125,19.8310547 L109.417336,19.8310547 L109.417336,21 L111.12632,21 L111.12632,10.6367188 L109.417336,10.6367188 L109.417336,14.7177734 L109.301125,14.7177734 C108.911477,13.9111328 108.056984,13.4052734 107.031594,13.4052734 C105.138039,13.4052734 103.969094,14.8818359 103.969094,17.2607422 L103.969094,17.2744141 C103.969094,19.6396484 105.158547,21.1230469 107.031594,21.1230469 Z M107.564797,19.6875 C106.402688,19.6875 105.698586,18.7783203 105.698586,17.2744141 L105.698586,17.2607422 C105.698586,15.7568359 106.409524,14.8408203 107.564797,14.8408203 C108.72007,14.8408203 109.44468,15.7636719 109.44468,17.2607422 L109.44468,17.2744141 C109.44468,18.7714844 108.726906,19.6875 107.564797,19.6875 Z M117.576219,21.1230469 C119.449266,21.1230469 120.645555,19.6396484 120.645555,17.2744141 L120.645555,17.2607422 C120.645555,14.8818359 119.469774,13.4052734 117.576219,13.4052734 C116.550828,13.4052734 115.696336,13.9111328 115.306688,14.7177734 L115.190477,14.7177734 L115.190477,10.6367188 L113.488328,10.6367188 L113.488328,21 L115.190477,21 L115.190477,19.8310547 L115.306688,19.8310547 C115.716844,20.6445312 116.53032,21.1230469 117.576219,21.1230469 Z M117.043016,19.6875 C115.887742,19.6875 115.169969,18.7714844 115.169969,17.2744141 L115.169969,17.2607422 C115.169969,15.7636719 115.887742,14.8408203 117.043016,14.8408203 C118.205125,14.8408203 118.909227,15.7568359 118.909227,17.2607422 L118.909227,17.2744141 C118.909227,18.7783203 118.205125,19.6875 117.043016,19.6875 Z M125.728266,21.1503906 C127.963617,21.1503906 129.323969,19.6875 129.323969,17.2675781 L129.323969,17.2539062 C129.323969,14.8476562 127.956781,13.3847656 125.728266,13.3847656 C123.506586,13.3847656 122.132563,14.8544922 122.132563,17.2539062 L122.132563,17.2675781 C122.132563,19.6875 123.486078,21.1503906 125.728266,21.1503906 Z M125.728266,19.7695312 C124.545649,19.7695312 123.868891,18.8466797 123.868891,17.2744141 L123.868891,17.2607422 C123.868891,15.6884766 124.545649,14.7587891 125.728266,14.7587891 C126.904047,14.7587891 127.580805,15.6884766 127.580805,17.2607422 L127.580805,17.2744141 C127.580805,18.8466797 126.910883,19.7695312 125.728266,19.7695312 Z M132.068789,21 L133.593203,18.4023438 L133.709414,18.4023438 L135.240664,21 L137.154727,21 L134.714297,17.2197266 L137.127383,13.5283203 L135.261172,13.5283203 L133.784609,16.1191406 L133.668399,16.1191406 L132.185,13.5283203 L130.21625,13.5283203 L132.65668,17.2949219 L130.236758,21 L132.068789,21 Z" id="TryinSandbox" fill="#FFFFFF" fill-rule="nonzero"></path>
    </g>
</svg>