<?xml version="1.0" encoding="UTF-8"?>
<svg width="150px" height="28px" viewBox="0 0 150 28" version="1.1" xmlns="http://www.w3.org/2000/svg" xmlns:xlink="http://www.w3.org/1999/xlink">
    <title>wiki-playground-btn</title>
    <g id="wiki-playground-btn" stroke="none" stroke-width="1" fill="none" fill-rule="evenodd">
        <rect id="Rectangle" stroke-opacity="0.001" stroke="#F0F6FC" fill="#1585FD" x="0.5" y="0.5" width="149" height="27" rx="6"></rect>
        <path d="M15.9052734,20.3808594 C16.2197266,20.3808594 16.5068359,20.2783203 16.8896484,20.0595703 L25.0927734,15.3017578 C25.7216797,14.9394531 26.0361328,14.6044922 26.0361328,14.0712891 C26.0361328,13.5449219 25.7216797,13.2099609 25.0927734,12.8408203 L16.8896484,8.08300781 C16.5068359,7.86425781 16.2197266,7.76855469 15.9052734,7.76855469 C15.2626953,7.76855469 14.7431641,8.25390625 14.7431641,9.07421875 L14.7431641,19.0683594 C14.7431641,19.8886719 15.2626953,20.3808594 15.9052734,20.3808594 Z M35.7845625,19 L35.7845625,10.8378906 L38.7445234,10.8378906 L38.7445234,9.13574219 L30.7601484,9.13574219 L30.7601484,10.8378906 L33.7201094,10.8378906 L33.7201094,19 L35.7845625,19 Z M41.7354375,19 L41.7354375,14.7890625 C41.7354375,13.7226562 42.453211,13.0732422 43.5879766,13.0732422 C43.8955938,13.0732422 44.203211,13.1210938 44.5039922,13.1894531 L44.5039922,11.4462891 C44.30575,11.3916016 44.0254766,11.3505859 43.758875,11.3505859 C42.781336,11.3505859 42.0977422,11.8291016 41.8584844,12.6425781 L41.7354375,12.6425781 L41.7354375,11.4736328 L39.7393438,11.4736328 L39.7393438,19 L41.7354375,19 Z M46.982211,21.6523438 C48.841586,21.6523438 49.8327969,20.9824219 50.5027188,18.9931641 L53.0661953,11.4736328 L50.9607266,11.4736328 L49.381625,17.1748047 L49.2449063,17.1748047 L47.6658047,11.4736328 L45.4714688,11.4736328 L48.1169766,19 L48.0486172,19.2871094 C47.9050625,19.875 47.4949063,20.1484375 46.7839688,20.1484375 C46.5993985,20.1484375 46.4011563,20.1416016 46.2644375,20.1279297 L46.2644375,21.6318359 C46.4968594,21.6455078 46.7497891,21.6523438 46.982211,21.6523438 Z M59.3829844,10.3183594 C59.9982188,10.3183594 60.5040782,9.82617188 60.5040782,9.2109375 C60.5040782,8.58886719 59.9982188,8.09667969 59.3829844,8.09667969 C58.76775,8.09667969 58.2550547,8.58886719 58.2550547,9.2109375 C58.2550547,9.82617188 58.76775,10.3183594 59.3829844,10.3183594 Z M60.3741953,19 L60.3741953,11.4736328 L58.3781016,11.4736328 L58.3781016,19 L60.3741953,19 Z M64.5340547,19 L64.5340547,14.6455078 C64.5340547,13.6269531 65.0946016,12.9638672 66.0174532,12.9638672 C66.9608125,12.9638672 67.3983125,13.5244141 67.3983125,14.5839844 L67.3983125,19 L69.3944063,19 L69.3944063,14.1328125 C69.3944063,12.3349609 68.4920625,11.3095703 66.8172578,11.3095703 C65.7440157,11.3095703 64.9988985,11.8222656 64.6571016,12.6357422 L64.5340547,12.6357422 L64.5340547,11.4736328 L62.537961,11.4736328 L62.537961,19 L64.5340547,19 Z M78.9651016,19.2529297 C81.4260391,19.2529297 82.9436172,18.015625 82.9436172,16.0605469 L82.9436172,16.0537109 C82.9436172,14.515625 82.0344375,13.6816406 79.9494766,13.2509766 L78.9035782,13.0390625 C77.7414688,12.7998047 77.2629532,12.4169922 77.2629532,11.7744141 L77.2629532,11.7675781 C77.2629532,11.0292969 77.939711,10.5644531 78.9582657,10.5576172 C79.9973282,10.5576172 80.6809219,11.0498047 80.7971329,11.7539062 L80.8108047,11.8359375 L82.752211,11.8359375 L82.745375,11.7470703 C82.6154922,10.0996094 81.2619766,8.8828125 78.9582657,8.8828125 C76.7707657,8.8828125 75.1985,10.0927734 75.1985,11.9248047 L75.1985,11.9316406 C75.1985,13.4287109 76.080336,14.3857422 78.1311172,14.8027344 L79.1701797,15.0146484 C80.3938125,15.2675781 80.8791641,15.6298828 80.8791641,16.2792969 L80.8791641,16.2861328 C80.8791641,17.0449219 80.120375,17.5712891 79.0197891,17.5712891 C77.8645157,17.5712891 77.064711,17.0722656 76.9895157,16.3339844 L76.9826797,16.265625 L74.9934219,16.265625 L75.0002579,16.375 C75.1164688,18.125 76.6067032,19.2529297 78.9651016,19.2529297 Z M86.7958594,19.1162109 C87.7802344,19.1162109 88.5732032,18.6992188 88.9560157,18.0019531 L89.0790626,18.0019531 L89.0790626,19 L91.0478126,19 L91.0478126,13.859375 C91.0478126,12.2529297 89.9198829,11.3095703 87.9237891,11.3095703 C86.0302344,11.3095703 84.7860938,12.1845703 84.6288672,13.5039062 L84.6220313,13.5654297 L86.4677344,13.5654297 L86.4814063,13.5380859 C86.6386329,13.09375 87.0966407,12.8408203 87.8144141,12.8408203 C88.6347266,12.8408203 89.0790626,13.2099609 89.0790626,13.859375 L89.0790626,14.4814453 L87.2607032,14.5908203 C85.3876563,14.7001953 84.3417579,15.4931641 84.3417579,16.8466797 L84.3417579,16.8603516 C84.3417579,18.2275391 85.3603126,19.1162109 86.7958594,19.1162109 Z M87.4657813,17.6601562 C86.7753516,17.6601562 86.2900001,17.3115234 86.2900001,16.7373047 L86.2900001,16.7236328 C86.2900001,16.1767578 86.7069922,15.8554688 87.5614844,15.8007812 L89.0790626,15.7050781 L89.0790626,16.2587891 C89.0790626,17.0517578 88.3886329,17.6601562 87.4657813,17.6601562 Z M95.1529844,19 L95.1529844,14.6455078 C95.1529844,13.6269531 95.7135313,12.9638672 96.6363829,12.9638672 C97.5797422,12.9638672 98.0172422,13.5244141 98.0172422,14.5839844 L98.0172422,19 L100.013336,19 L100.013336,14.1328125 C100.013336,12.3349609 99.1109922,11.3095703 97.4361876,11.3095703 C96.3629454,11.3095703 95.6178282,11.8222656 95.2760313,12.6357422 L95.1529844,12.6357422 L95.1529844,11.4736328 L93.1568907,11.4736328 L93.1568907,19 L95.1529844,19 Z M104.781594,19.1162109 C105.841164,19.1162109 106.640969,18.6445312 107.030617,17.8310547 L107.153664,17.8310547 L107.153664,19 L109.149758,19 L109.149758,8.59570312 L107.153664,8.59570312 L107.153664,12.6767578 L107.030617,12.6767578 C106.654641,11.8564453 105.81382,11.3505859 104.781594,11.3505859 C102.874367,11.3505859 101.72593,12.8066406 101.72593,15.2265625 L101.72593,15.2402344 C101.72593,17.6464844 102.901711,19.1162109 104.781594,19.1162109 Z M105.458352,17.4619141 C104.405617,17.4619141 103.756203,16.6279297 103.756203,15.2402344 L103.756203,15.2265625 C103.756203,13.8525391 104.405617,13.0048828 105.458352,13.0048828 C106.511086,13.0048828 107.174172,13.8525391 107.174172,15.2333984 L107.174172,15.2470703 C107.174172,16.6279297 106.517922,17.4619141 105.458352,17.4619141 Z M115.81157,19.1162109 C117.691453,19.1162109 118.867234,17.6464844 118.867234,15.2402344 L118.867234,15.2265625 C118.867234,12.8066406 117.718797,11.3505859 115.81157,11.3505859 C114.779344,11.3505859 113.938524,11.8564453 113.555711,12.6767578 L113.432664,12.6767578 L113.432664,8.59570312 L111.43657,8.59570312 L111.43657,19 L113.432664,19 L113.432664,17.8310547 L113.555711,17.8310547 C113.945359,18.6445312 114.745164,19.1162109 115.81157,19.1162109 Z M115.127977,17.4619141 C114.075242,17.4619141 113.412156,16.6279297 113.412156,15.2470703 L113.412156,15.2333984 C113.412156,13.8525391 114.082078,13.0048828 115.127977,13.0048828 C116.180711,13.0048828 116.836961,13.8525391 116.836961,15.2265625 L116.836961,15.2402344 C116.836961,16.6279297 116.187547,17.4619141 115.127977,17.4619141 Z M123.984125,19.1572266 C126.301508,19.1572266 127.696039,17.6943359 127.696039,15.2402344 L127.696039,15.2265625 C127.696039,12.7929688 126.281,11.3095703 123.984125,11.3095703 C121.68725,11.3095703 120.272211,12.7998047 120.272211,15.2265625 L120.272211,15.2402344 C120.272211,17.6875 121.666742,19.1572266 123.984125,19.1572266 Z M123.984125,17.5917969 C122.917719,17.5917969 122.316156,16.7236328 122.316156,15.2402344 L122.316156,15.2265625 C122.316156,13.7568359 122.924555,12.875 123.984125,12.875 C125.036859,12.875 125.652094,13.7568359 125.652094,15.2265625 L125.652094,15.2402344 C125.652094,16.7236328 125.043695,17.5917969 123.984125,17.5917969 Z M130.618594,19 L132.019961,16.5117188 L132.143008,16.5117188 L133.551211,19 L135.759219,19 L133.373477,15.1923828 L135.745547,11.4736328 L133.571719,11.4736328 L132.238711,13.96875 L132.115664,13.96875 L130.782656,11.4736328 L128.492617,11.4736328 L130.871524,15.2744141 L128.513125,19 L130.618594,19 Z" id="TryinSandbox" fill="#FFFFFF" fill-rule="nonzero"></path>
    </g>
</svg>