<?xml version="1.0" encoding="UTF-8"?>
<svg width="149px" height="48px" viewBox="0 0 149 48" version="1.1" xmlns="http://www.w3.org/2000/svg" xmlns:xlink="http://www.w3.org/1999/xlink">
    <title>wiki-playground-btn</title>
    <g id="wiki-playground-btn" stroke="none" stroke-width="1" fill="none" fill-rule="evenodd">
        <rect id="Rectangle" fill="#1D69E0" x="0" y="0" width="149" height="48" rx="3"></rect>
        <path d="M18.5634766,29.8613281 C18.8369141,29.8613281 19.0693359,29.7519531 19.3427734,29.5947266 L27.3134766,24.9873047 C27.8808594,24.6523438 28.0791016,24.4335938 28.0791016,24.0712891 C28.0791016,23.7089844 27.8808594,23.4902344 27.3134766,23.1621094 L19.3427734,18.5478516 C19.0693359,18.390625 18.8369141,18.2880859 18.5634766,18.2880859 C18.0576172,18.2880859 17.7431641,18.6708984 17.7431641,19.265625 L17.7431641,28.8769531 C17.7431641,29.4716797 18.0576172,29.8613281 18.5634766,29.8613281 Z M37.5540938,29 L37.5540938,20.2431641 L40.7328047,20.2431641 L40.7328047,19.1357422 L33.1449141,19.1357422 L33.1449141,20.2431641 L36.323625,20.2431641 L36.323625,29 L37.5540938,29 Z M42.8008672,29 L42.8008672,24.4335938 C42.8008672,23.3535156 43.6075078,22.6357422 44.7422735,22.6357422 C45.0020391,22.6357422 45.227625,22.6630859 45.4737188,22.7041016 L45.4737188,21.5488281 C45.3575078,21.5283203 45.1045781,21.5009766 44.8789922,21.5009766 C43.8809453,21.5009766 43.1905156,21.9521484 42.9102422,22.7246094 L42.8008672,22.7246094 L42.8008672,21.6308594 L41.6114141,21.6308594 L41.6114141,29 L42.8008672,29 Z M47.7263516,31.5839844 C49.0320156,31.5839844 49.6404141,31.1054688 50.2488125,29.4511719 L53.1267422,21.6308594 L51.8757656,21.6308594 L49.8591641,27.6943359 L49.7497891,27.6943359 L47.7263516,21.6308594 L46.4548672,21.6308594 L49.1824063,29.0068359 L49.0456875,29.4443359 C48.779086,30.2919922 48.3689297,30.5996094 47.6921719,30.5996094 C47.5281094,30.5996094 47.3435391,30.5927734 47.1999844,30.5654297 L47.1999844,31.5429688 C47.3640469,31.5703125 47.569125,31.5839844 47.7263516,31.5839844 Z M59.5734141,20.2089844 C60.024586,20.2089844 60.3937266,19.8398438 60.3937266,19.3886719 C60.3937266,18.9375 60.024586,18.5683594 59.5734141,18.5683594 C59.1222422,18.5683594 58.7531016,18.9375 58.7531016,19.3886719 C58.7531016,19.8398438 59.1222422,20.2089844 59.5734141,20.2089844 Z M60.1613047,29 L60.1613047,21.6308594 L58.9718516,21.6308594 L58.9718516,29 L60.1613047,29 Z M63.7469453,29 L63.7469453,24.6386719 C63.7469453,23.3466797 64.4920625,22.5537109 65.6678438,22.5537109 C66.843625,22.5537109 67.3905,23.1894531 67.3905,24.515625 L67.3905,29 L68.5799532,29 L68.5799532,24.2285156 C68.5799532,22.4785156 67.6571016,21.5009766 66.0028047,21.5009766 C64.9158907,21.5009766 64.225461,21.9589844 63.8563203,22.7382812 L63.7469453,22.7382812 L63.7469453,21.6308594 L62.5574922,21.6308594 L62.5574922,29 L63.7469453,29 Z M78.3557266,29.2324219 C80.5568985,29.2324219 81.9992813,28.0839844 81.9992813,26.2382812 L81.9992813,26.2314453 C81.9992813,24.8095703 81.1858047,23.9824219 79.1281875,23.5244141 L78.0344375,23.2783203 C76.6945938,22.984375 76.1545547,22.4511719 76.1545547,21.6650391 L76.1545547,21.6582031 C76.1545547,20.6259766 77.10475,20.0449219 78.3352188,20.0380859 C79.620375,20.03125 80.4406875,20.6738281 80.5774063,21.5419922 L80.5910782,21.6308594 L81.8215469,21.6308594 L81.814711,21.5351562 C81.7121719,20.0654297 80.3381485,18.9033203 78.3693985,18.9033203 C76.3322891,18.9033203 74.9035782,20.0585938 74.8967422,21.6923828 L74.8967422,21.6992188 C74.8967422,23.1279297 75.7512344,24.0371094 77.7268204,24.4746094 L78.8205704,24.7138672 C80.174086,25.0146484 80.7414688,25.5751953 80.7414688,26.3955078 L80.7414688,26.4023438 C80.7414688,27.4072266 79.7639297,28.0976562 78.424086,28.0976562 C77.002211,28.0976562 75.9768204,27.4755859 75.8879532,26.4912109 L75.8811172,26.4160156 L74.6506485,26.4160156 L74.6574844,26.4912109 C74.8010391,28.0976562 76.1955704,29.2324219 78.3557266,29.2324219 Z M86.0702735,29.1298828 C87.0614844,29.1298828 87.8339454,28.6992188 88.2987891,27.9130859 L88.4081641,27.9130859 L88.4081641,29 L89.5976172,29 L89.5976172,23.9550781 C89.5976172,22.4238281 88.5927344,21.5009766 86.7948829,21.5009766 C85.2226172,21.5009766 84.1015235,22.2802734 83.9101172,23.4355469 L83.9032813,23.4765625 L85.0927344,23.4765625 L85.0995704,23.4560547 C85.2909766,22.8818359 85.8720313,22.5537109 86.7538672,22.5537109 C87.8544532,22.5537109 88.4081641,23.0458984 88.4081641,23.9550781 L88.4081641,24.625 L86.2958594,24.7548828 C84.5800391,24.8574219 83.609336,25.6162109 83.609336,26.9287109 L83.609336,26.9423828 C83.609336,28.2822266 84.6689063,29.1298828 86.0702735,29.1298828 Z M86.3163672,28.0976562 C85.4618751,28.0976562 84.8261329,27.6601562 84.8261329,26.9150391 L84.8261329,26.9013672 C84.8261329,26.1699219 85.3183204,25.7734375 86.4394141,25.7050781 L88.4081641,25.5820312 L88.4081641,26.2519531 C88.4081641,27.3046875 87.5263282,28.0976562 86.3163672,28.0976562 Z M93.1148985,29 L93.1148985,24.6386719 C93.1148985,23.3466797 93.8600157,22.5537109 95.0357969,22.5537109 C96.2115782,22.5537109 96.7584532,23.1894531 96.7584532,24.515625 L96.7584532,29 L97.9479063,29 L97.9479063,24.2285156 C97.9479063,22.4785156 97.0250547,21.5009766 95.3707579,21.5009766 C94.2838438,21.5009766 93.5934141,21.9589844 93.2242735,22.7382812 L93.1148985,22.7382812 L93.1148985,21.6308594 L91.9254454,21.6308594 L91.9254454,29 L93.1148985,29 Z M102.969094,29.1298828 C103.994484,29.1298828 104.814797,28.6445312 105.265969,27.8242188 L105.375344,27.8242188 L105.375344,29 L106.564797,29 L106.564797,18.7050781 L105.375344,18.7050781 L105.375344,22.7929688 L105.265969,22.7929688 C104.862649,22.0068359 103.980813,21.5009766 102.969094,21.5009766 C101.096047,21.5009766 99.8792501,22.9980469 99.8792501,25.3085938 L99.8792501,25.3222656 C99.8792501,27.6191406 101.102883,29.1298828 102.969094,29.1298828 Z M103.242531,28.0771484 C101.895852,28.0771484 101.096047,27.0380859 101.096047,25.3222656 L101.096047,25.3085938 C101.096047,23.5927734 101.895852,22.5537109 103.242531,22.5537109 C104.582375,22.5537109 105.402688,23.6064453 105.402688,25.3085938 L105.402688,25.3222656 C105.402688,27.0244141 104.582375,28.0771484 103.242531,28.0771484 Z M112.666063,29.1298828 C114.532274,29.1298828 115.755906,27.6191406 115.755906,25.3222656 L115.755906,25.3085938 C115.755906,22.9980469 114.539109,21.5009766 112.666063,21.5009766 C111.654344,21.5009766 110.772508,22.0068359 110.369188,22.7929688 L110.259813,22.7929688 L110.259813,18.7050781 L109.070359,18.7050781 L109.070359,29 L110.259813,29 L110.259813,27.8242188 L110.369188,27.8242188 C110.820359,28.6445312 111.640672,29.1298828 112.666063,29.1298828 Z M112.392625,28.0771484 C111.052781,28.0771484 110.232469,27.0244141 110.232469,25.3222656 L110.232469,25.3085938 C110.232469,23.6064453 111.052781,22.5537109 112.392625,22.5537109 C113.739305,22.5537109 114.539109,23.5927734 114.539109,25.3085938 L114.539109,25.3222656 C114.539109,27.0380859 113.739305,28.0771484 112.392625,28.0771484 Z M120.78393,29.1298828 C122.882563,29.1298828 124.181391,27.6806641 124.181391,25.3222656 L124.181391,25.3085938 C124.181391,22.9433594 122.882563,21.5009766 120.78393,21.5009766 C118.685297,21.5009766 117.386469,22.9433594 117.386469,25.3085938 L117.386469,25.3222656 C117.386469,27.6806641 118.685297,29.1298828 120.78393,29.1298828 Z M120.78393,28.0771484 C119.389399,28.0771484 118.603266,27.0585938 118.603266,25.3222656 L118.603266,25.3085938 C118.603266,23.5654297 119.389399,22.5537109 120.78393,22.5537109 C122.178461,22.5537109 122.964594,23.5654297 122.964594,25.3085938 L122.964594,25.3222656 C122.964594,27.0585938 122.178461,28.0771484 120.78393,28.0771484 Z M126.584414,29 L128.334414,26.2177734 L128.443789,26.2177734 L130.186953,29 L131.581484,29 L129.045352,25.2675781 L131.547305,21.6308594 L130.214297,21.6308594 L128.484805,24.3720703 L128.37543,24.3720703 L126.62543,21.6308594 L125.224063,21.6308594 L127.773867,25.3154297 L125.251406,29 L126.584414,29 Z" id="TryinSandbox" fill="#FFFFFF" fill-rule="nonzero"></path>
    </g>
</svg>